<svg id="Layer_1" data-name="Layer 1" xmlns="http://www.w3.org/2000/svg" viewBox="0 0 50 50"><defs><style>.cls-1{fill:#fff;}.cls-2{fill:#020202;}</style></defs><path d="M8.83,10.36v1.48c0,6.1,0,12.19,0,18.29a9.36,9.36,0,0,0,1.4,5.12A25.21,25.21,0,0,0,23.85,46.17a3.65,3.65,0,0,0,2.24,0,24.65,24.65,0,0,0,13.71-11,9.5,9.5,0,0,0,1.31-4.42c.14-6.55.07-13.11.06-19.67a5.1,5.1,0,0,0-.09-.71A42.17,42.17,0,0,1,25.52,4.11a1.26,1.26,0,0,0-1.1,0A42.25,42.25,0,0,1,8.83,10.36ZM44,20.48c0,3.09-.06,6.19,0,9.28a12.56,12.56,0,0,1-2.08,7.33,27.6,27.6,0,0,1-16,12,3.59,3.59,0,0,1-1.87,0A27.51,27.51,0,0,1,7.71,36.43,11.79,11.79,0,0,1,6,30.1c.05-6.65,0-13.3,0-20,0-1.93.13-2.12,2-2.47A38.52,38.52,0,0,0,24.12,1,2,2,0,0,1,26,1,37.82,37.82,0,0,0,42.16,7.71,1.9,1.9,0,0,1,44,10C43.93,13.46,44,17,44,20.48Z"/><path class="cls-1" d="M8.83,10.36a44.6,44.6,0,0,0,16.3-6.67s11,6,16,6.67c0,0,1.74,20.61-.7,24.08-2.57,3.64-5.26,9.22-14.49,11.73a5.42,5.42,0,0,1-2,.17c-3-.62-14.79-6.42-15.09-16.21Z"/><path class="cls-2" d="M38.2,29.57v.69h0a.51.51,0,0,1-.59.38c-.11,0-.21,0-.32,0s-.13,0-.13.12c0,.3,0,.59,0,.89v.69a3.63,3.63,0,0,1,0,.65.54.54,0,0,1-.53.28c-.85,0-1.69,0-2.54,0,0,0,0,.07,0,.11V36.9c0,.07,0,.13.09.15a1.56,1.56,0,0,1,1,1.87A1.65,1.65,0,0,1,34,40.09a2.7,2.7,0,0,1-.69.07l-.05,0A1.6,1.6,0,0,1,33,37.06c.11,0,.1-.11.1-.19V33.48c0-.17,0-.22-.21-.22q-2.91,0-5.82,0H22.56c-.09,0-.16,0-.16.14,0,1,0,2.06,0,3.09,0,.14,0,.28,0,.41a.15.15,0,0,0,.12.17,1.39,1.39,0,0,1,.53.33,1.61,1.61,0,0,1,.33,1.86,1.66,1.66,0,0,1-1.11.87,2.28,2.28,0,0,1-.69,0,1.73,1.73,0,0,1-1.09-.87,1.56,1.56,0,0,1,.65-2.07.55.55,0,0,0,.33-.66V33.39c0-.09,0-.13-.12-.13H18.81c-.38-.08-.49-.21-.49-.61,0-.72,0-1.43,0-2.15a.34.34,0,0,0-.12-.26c-.3-.29-.58-.58-.87-.87l-6.07-6.06-.57-.57a.47.47,0,0,1,0-.75l2.42-2.41.14-.16a.51.51,0,0,1,.69.06l0,.07,3.72,3.71c.85.84,1.7,1.68,2.53,2.53a.64.64,0,0,0,.62.23H35c.07,0,.12,0,.12-.11s0-.36,0-.55a3.32,3.32,0,0,0,0-.63,4.7,4.7,0,0,0,0-.75,3.32,3.32,0,0,0,0-.63,4.7,4.7,0,0,0,0-.75,3.42,3.42,0,0,0,0-.64,4.7,4.7,0,0,0,0-.75,3.32,3.32,0,0,0,0-.63,4.7,4.7,0,0,0,0-.75,3.42,3.42,0,0,0,0-.64,4.7,4.7,0,0,0,0-.75,3.31,3.31,0,0,0,0-.63,4.7,4.7,0,0,0,0-.75,3.42,3.42,0,0,0,0-.64c0-.23,0-.47,0-.7s0-.19-.18-.19H31.27a3,3,0,0,1,.53.39,2.06,2.06,0,0,1,.4.52,2.57,2.57,0,0,1,.16.62v2.1a2.12,2.12,0,0,1-.21.66,2.2,2.2,0,0,1-.87.76,2.48,2.48,0,0,1-.66.12,2.06,2.06,0,0,1-.73-.14h0A2.56,2.56,0,0,1,29.2,20l-.11-.16a2.44,2.44,0,0,1-.25-.7V17.11a2.34,2.34,0,0,1,.18-.69l.17-.28a2.61,2.61,0,0,1,.74-.57c-.6,0-1.19,0-1.78,0-.38,0-.53-.14-.55-.52a.59.59,0,0,1,.21-.33.66.66,0,0,1,.31-.06h1.8c.17,0,.22,0,.22-.21a1.46,1.46,0,0,1,.08-.8.62.62,0,0,1,.36-.18.53.53,0,0,1,.4.19,1.6,1.6,0,0,1,.08.81c0,.15,0,.18.19.18h3.24s.06,0,.08,0a1.73,1.73,0,0,1-.65-1,3.18,3.18,0,0,1,0-.69,1.74,1.74,0,0,1,.82-1.14,3.7,3.7,0,0,1,.52-.2l.17,0a1.78,1.78,0,0,1,1.38.54.35.35,0,0,0,.11.13,2,2,0,0,1,.3.69,1.73,1.73,0,0,1-.68,1.68c.36,0,.46.1.57.4s-.17.52-.57.52h-.25c-.26,0-.26,0-.26.28v7c0,1,0,2.05,0,3.07,0,.13,0,.18.18.17h1.5a.47.47,0,0,1,.5.48,2.53,2.53,0,0,0,0,.28v2.77Zm-5.3,8.82,0,0a.26.26,0,0,0,0,.15.64.64,0,0,0,.48.62A.59.59,0,0,0,34,39a.62.62,0,0,0,0-.81.64.64,0,0,0-.8-.22A.55.55,0,0,0,32.9,38.39Zm4.35-10.9s0-.06,0-.08c0-.46,0-.46-.45-.43H20.23a.71.71,0,0,1-.26-.16q-3.13-3.12-6.26-6.25c-.09-.09-.14-.1-.24,0l-1.58,1.58c-.27.27-.27.26,0,.5a7.86,7.86,0,0,0,.64.65l0,.05a8,8,0,0,0,.65.65l0,0c.21.23.42.44.65.65l0,0a6.55,6.55,0,0,0,.64.65l0,.05c.2.22.42.44.64.64l.05.05a6.55,6.55,0,0,0,.65.64l.05.05.64.64.06.06.63.63.06.06.63.63.06.06.63.63c.09.09.14.2.29.2h18c.1,0,.13,0,.13-.13s0-.47,0-.7V27.49ZM28.5,32.33h7.6c.1,0,.12,0,.12-.14V30.77c0-.09,0-.13-.12-.13H19.5c-.24,0-.25,0-.24.22a.19.19,0,0,0,0,.08v.69c0,.16,0,.31,0,.46s0,.24.24.23h9Zm2.08-14.08H29.9c-.11,0-.13.05-.13.15s0,.4,0,.6a.79.79,0,0,0,.8.79.8.8,0,0,0,.83-.62,4.58,4.58,0,0,0,0-.83c0-.08-.06-.08-.12-.08Zm0-1.86a.83.83,0,0,0-.81.81c0,.08,0,.12.12.12.48,0,1,0,1.43,0,.1,0,.13,0,.12-.12a.83.83,0,0,0-.17-.45A.76.76,0,0,0,30.58,16.39ZM22.27,38a.59.59,0,0,0-.7,0,.63.63,0,0,0-.28.72.67.67,0,0,0,1.31,0A.66.66,0,0,0,22.27,38ZM35.42,12.54a.65.65,0,0,0-.52.41.72.72,0,0,0,.29,1,.74.74,0,0,0,1-.21.69.69,0,0,0,0-.79A.71.71,0,0,0,35.42,12.54Z"/><path class="cls-2" d="M28.5,21.46h2.86a3,3,0,0,1,.6,0,3.74,3.74,0,0,1,.7.27l.24.18a4,4,0,0,1,.45.55l.07.14a2.91,2.91,0,0,1,.19.7v.08a.57.57,0,0,0,0,.26l-.06.35a2.14,2.14,0,0,1-.66,1,2,2,0,0,1-1.33.49H21.84a3,3,0,0,1-.95-.15l-.08,0a3.25,3.25,0,0,1-.62-.45,1,1,0,0,0-.21-.21,5.44,5.44,0,0,0-.48-.48,1,1,0,0,0-.21-.21,5.44,5.44,0,0,0-.48-.48.88.88,0,0,0-.22-.21,3.63,3.63,0,0,0-.48-.48,1,1,0,0,0-.21-.21,3.63,3.63,0,0,0-.48-.48.88.88,0,0,0-.21-.22l-.48-.51-.11-.18a2.46,2.46,0,0,1-.24-.69l0-.15h0l0,0,0-.51a3,3,0,0,1,.27-.7l.08-.13a3.14,3.14,0,0,1,.6-.55l.09-.05a2.9,2.9,0,0,1,.7-.24h.64a2.46,2.46,0,0,1,.83.36c.22.15.39.37.6.54l.06.07.63.62.07.07.62.63.07.06.63.63c.11.1.17.27.35.27H28.5ZM32,24.54a1,1,0,0,0,.58-.51.89.89,0,0,0,.11-.69,1.09,1.09,0,0,0-1-.94H22.27a.7.7,0,0,1-.36-.23l-2.69-2.68a.87.87,0,0,0-.41-.27,1.05,1.05,0,0,0-.7,0A1.1,1.1,0,0,0,17.59,21c.31.34.64.65,1,1l2.31,2.32a1.08,1.08,0,0,0,.72.33h9.69A1.36,1.36,0,0,0,32,24.54Z"/><path class="cls-2" d="M14.65,19.19A2.26,2.26,0,0,1,13,17.8a2.62,2.62,0,0,1-.14-.73l0-.58a3.12,3.12,0,0,1,.34-.77.13.13,0,0,0,.07-.09,3.88,3.88,0,0,1,.42-.39A2.22,2.22,0,0,1,16,15h0a3.16,3.16,0,0,1,.66.55l.11.14a3.17,3.17,0,0,1,.28.55,2.36,2.36,0,0,1,0,1.53.26.26,0,0,0-.05.09,2.22,2.22,0,0,1-1.68,1.3l0,0h0A3.19,3.19,0,0,1,14.65,19.19Zm0-1a1.05,1.05,0,0,0,.7,0A1.1,1.1,0,0,0,16,17.8a1.27,1.27,0,0,0-.68-2,1.16,1.16,0,0,0-.69,0,1.27,1.27,0,0,0-.59,2.06A1.1,1.1,0,0,0,14.65,18.22Z"/></svg>