<svg id="Layer_1" data-name="Layer 1" xmlns="http://www.w3.org/2000/svg" viewBox="0 0 50 50"><defs><style>.cls-1{fill:#fff;}</style></defs><path d="M8.83,10.36v1.48c0,6.1,0,12.19,0,18.29a9.36,9.36,0,0,0,1.4,5.12A25.21,25.21,0,0,0,23.85,46.17a3.65,3.65,0,0,0,2.24,0,24.65,24.65,0,0,0,13.71-11,9.5,9.5,0,0,0,1.31-4.42c.14-6.55.07-13.11.06-19.67a5.1,5.1,0,0,0-.09-.71A42.17,42.17,0,0,1,25.52,4.11a1.26,1.26,0,0,0-1.1,0A42.25,42.25,0,0,1,8.83,10.36ZM44,20.48c0,3.09-.06,6.19,0,9.28a12.56,12.56,0,0,1-2.08,7.33,27.6,27.6,0,0,1-16,12,3.59,3.59,0,0,1-1.87,0A27.51,27.51,0,0,1,7.71,36.43,11.79,11.79,0,0,1,6,30.1c.05-6.65,0-13.3,0-20,0-1.93.13-2.12,2-2.47A38.52,38.52,0,0,0,24.12,1,2,2,0,0,1,26,1,37.82,37.82,0,0,0,42.16,7.71,1.9,1.9,0,0,1,44,10C43.93,13.46,44,17,44,20.48Z"/><path class="cls-1" d="M8.83,10.36a44.6,44.6,0,0,0,16.3-6.67s11,6,16,6.67c0,0,1.74,20.61-.7,24.08-2.57,3.64-5.26,9.22-14.49,11.73a5.42,5.42,0,0,1-2,.17c-3-.62-14.79-6.42-15.09-16.21Z"/><path d="M8.83,10.36v1.48c0,6.1,0,12.19,0,18.29a9.36,9.36,0,0,0,1.4,5.12A25.21,25.21,0,0,0,23.85,46.17a3.65,3.65,0,0,0,2.24,0,24.65,24.65,0,0,0,13.71-11,9.5,9.5,0,0,0,1.31-4.42c.14-6.55.07-13.11.06-19.67a5.1,5.1,0,0,0-.09-.71A42.17,42.17,0,0,1,25.52,4.11a1.26,1.26,0,0,0-1.1,0A42.25,42.25,0,0,1,8.83,10.36ZM44,20.48c0,3.09-.06,6.19,0,9.28a12.56,12.56,0,0,1-2.08,7.33,27.6,27.6,0,0,1-16,12,3.59,3.59,0,0,1-1.87,0A27.51,27.51,0,0,1,7.71,36.43,11.79,11.79,0,0,1,6,30.1c.05-6.65,0-13.3,0-20,0-1.93.13-2.12,2-2.47A38.52,38.52,0,0,0,24.12,1,2,2,0,0,1,26,1,37.82,37.82,0,0,0,42.16,7.71,1.9,1.9,0,0,1,44,10C43.93,13.46,44,17,44,20.48Z"/><path class="cls-1" d="M8.83,10.36a44.6,44.6,0,0,0,16.3-6.67s11,6,16,6.67c0,0,1.74,20.61-.7,24.08-2.57,3.64-5.26,9.22-14.49,11.73a5.42,5.42,0,0,1-2,.17c-3-.62-14.79-6.42-15.09-16.21Z"/><path d="M31.75,15.64a13.78,13.78,0,0,1,1.42.3,6.59,6.59,0,0,1,4.75,5.19,5.62,5.62,0,0,1-.5,3.56,13.62,13.62,0,0,1-2,2.94.31.31,0,0,1-.2.11c-1.93,0-3.85,0-5.78,0a.83.83,0,0,0-.67.27c-.3.32-.64.61-1,.92l-2.68-5.14-2.5,5.06-2.47-3.58c-.26.4-.48.76-.71,1.13s-.41.93-.77,1.13a3.22,3.22,0,0,1-1.4.07c-.7,0-1.41,0-2.12,0a.54.54,0,0,1-.38-.19,10.61,10.61,0,0,1-2.05-4.71,5.82,5.82,0,0,1,5.19-6.88,6.69,6.69,0,0,1,5.7,1.88c.53.5,1.06,1,1.52,1.45.4-.36.81-.68,1.18-1.05a7.36,7.36,0,0,1,3-2.09c.48-.15,1-.22,1.49-.33Z"/><path d="M16.16,29.05c1,0,1.94,0,2.92,0a.58.58,0,0,0,.6-.34c.13-.26.31-.5.49-.79l2.62,3.79L25.11,27l2.25,4.31c.57-.52,1.17-1,1.68-1.56a1.65,1.65,0,0,1,1.42-.6c1.13.05,2.27,0,3.47.1l-8.78,8.59c-2.91-3-6.19-5.64-9-8.73Z"/></svg>