<svg id="Layer_1" data-name="Layer 1" xmlns="http://www.w3.org/2000/svg" viewBox="0 0 50 50"><defs><style>.cls-1{fill:#fff;}</style></defs><path d="M8.83,10.36v1.48c0,6.1,0,12.19,0,18.29a9.36,9.36,0,0,0,1.4,5.12A25.21,25.21,0,0,0,23.85,46.17a3.65,3.65,0,0,0,2.24,0,24.65,24.65,0,0,0,13.71-11,9.5,9.5,0,0,0,1.31-4.42c.14-6.55.07-13.11.06-19.67a5.1,5.1,0,0,0-.09-.71A42.17,42.17,0,0,1,25.52,4.11a1.26,1.26,0,0,0-1.1,0A42.25,42.25,0,0,1,8.83,10.36ZM44,20.48c0,3.09-.06,6.19,0,9.28a12.56,12.56,0,0,1-2.08,7.33,27.6,27.6,0,0,1-16,12,3.59,3.59,0,0,1-1.87,0A27.51,27.51,0,0,1,7.71,36.43,11.79,11.79,0,0,1,6,30.1c.05-6.65,0-13.3,0-20,0-1.93.13-2.12,2-2.47A38.52,38.52,0,0,0,24.12,1,2,2,0,0,1,26,1,37.82,37.82,0,0,0,42.16,7.71,1.9,1.9,0,0,1,44,10C43.93,13.46,44,17,44,20.48Z"/><path class="cls-1" d="M8.83,10.36a44.6,44.6,0,0,0,16.3-6.67s11,6,16,6.67c0,0,1.74,20.61-.7,24.08-2.57,3.64-5.26,9.22-14.49,11.73a5.42,5.42,0,0,1-2,.17c-3-.62-14.79-6.42-15.09-16.21Z"/><path d="M30.75,20.73a9.39,9.39,0,0,1-4.85,9.33,2.11,2.11,0,0,1-2.42,0,9.05,9.05,0,0,1-4.83-7.86c0-1.14-.06-2.29,0-3.42a1.53,1.53,0,0,1,.59-1.08,9.74,9.74,0,0,1,10.88,0,1.66,1.66,0,0,1,.59,1.08A12.64,12.64,0,0,1,30.75,20.73Zm-.7.24a8,8,0,0,1,0-1.24c.2-1.07-.35-1.57-1.25-2a9.26,9.26,0,0,0-8.65.21,1.34,1.34,0,0,0-.85,1.45c.07.81,0,1.63,0,2.45a8.49,8.49,0,0,0,4.28,7.45,1.76,1.76,0,0,0,2.13,0A8.64,8.64,0,0,0,30.05,21Z"/><path d="M31,29l.23-.8a2.59,2.59,0,0,1,2.38-2,2.67,2.67,0,0,1,2.68,1.59c.34.76,1.28.92,2.33.41a1.43,1.43,0,0,0,.44-1.86,2.17,2.17,0,0,1,0-1.11c.18-1.45,0-1.77-1.41-1.7-2.13.09-3.74-1.22-5.6-1.83-.09,0-.13-.19-.26-.41.28-.05.49-.16.66-.11a4.26,4.26,0,0,1,1.1.4A10.88,10.88,0,0,0,38.34,23c1.17.05,1.38.4,1.44,1.54a12.85,12.85,0,0,0,.29,2A2.42,2.42,0,0,1,38.53,29c-.35.07-.7.15-1.06.19a1.48,1.48,0,0,0-1.31.93,2.59,2.59,0,0,1-4.45.36,1.51,1.51,0,0,0-1.65-.79c-.27,0-.57-.22-.86-.35a4.07,4.07,0,0,1,.82-.31A5.29,5.29,0,0,1,31,29Zm2.74,1.8a1.93,1.93,0,0,0,2-1.84,2,2,0,0,0-1.93-2,2,2,0,0,0-2,1.91A2,2,0,0,0,33.74,30.83Z"/><path d="M17.87,24.17a5.05,5.05,0,0,1-.8.34c-1.42.37-2.85.7-4.26,1.09a2.8,2.8,0,0,0-1.56,2.48c.1.67.36.83,1.43,1a14.55,14.55,0,0,1,1.57-2.33,2.51,2.51,0,0,1,1.63-.49c1.42,0,2.2.88,2.71,3a13,13,0,0,1,1.39,0c.18,0,.33.21.49.33a2.1,2.1,0,0,1-.5.34,1.6,1.6,0,0,1-.58,0,1.61,1.61,0,0,0-1.64.7,2.49,2.49,0,0,1-3.86.13,3.49,3.49,0,0,0-2.05-1.15c-1.18-.28-1.49-1.45-1.15-2.6.53-1.75,1.85-2.16,3.34-2.49,1-.21,2-.46,3-.66a3,3,0,0,1,.84,0Zm-2.08,6.64a2,2,0,0,0,1.92-1.94,2,2,0,1,0-3.9.06A1.93,1.93,0,0,0,15.79,30.81Z"/><path d="M23.61,18.2a3.42,3.42,0,0,1-.77.56c-1.67.59-1.63.59-1.69,2.4,0,.52.47,1.24-.38,1.59-.11-.53-.22-1.07-.31-1.6a6.77,6.77,0,0,1,0-.78C20.46,18.82,21.77,17.83,23.61,18.2Z"/></svg>