<svg id="Layer_1" data-name="Layer 1" xmlns="http://www.w3.org/2000/svg" viewBox="0 0 50 50"><defs><style>.cls-1{fill:#fff;}</style></defs><path d="M8.83,10.36v1.48c0,6.1,0,12.19,0,18.29a9.36,9.36,0,0,0,1.4,5.12A25.21,25.21,0,0,0,23.85,46.17a3.65,3.65,0,0,0,2.24,0,24.65,24.65,0,0,0,13.71-11,9.5,9.5,0,0,0,1.31-4.42c.14-6.55.07-13.11.06-19.67a5.1,5.1,0,0,0-.09-.71A42.17,42.17,0,0,1,25.52,4.11a1.26,1.26,0,0,0-1.1,0A42.25,42.25,0,0,1,8.83,10.36ZM44,20.48c0,3.09-.06,6.19,0,9.28a12.56,12.56,0,0,1-2.08,7.33,27.6,27.6,0,0,1-16,12,3.59,3.59,0,0,1-1.87,0A27.51,27.51,0,0,1,7.71,36.43,11.79,11.79,0,0,1,6,30.1c.05-6.65,0-13.3,0-20,0-1.93.13-2.12,2-2.47A38.52,38.52,0,0,0,24.12,1,2,2,0,0,1,26,1,37.82,37.82,0,0,0,42.16,7.71,1.9,1.9,0,0,1,44,10C43.93,13.46,44,17,44,20.48Z"/><path class="cls-1" d="M8.83,10.36a44.6,44.6,0,0,0,16.3-6.67s11,6,16,6.67c0,0,1.74,20.61-.7,24.08-2.57,3.64-5.26,9.22-14.49,11.73a5.42,5.42,0,0,1-2,.17c-3-.62-14.79-6.42-15.09-16.21Z"/><path d="M36.79,35.08c-3.19-.43-5.46.4-6.33,3.59L30,38.45l-4.12-6.9c-1,1-2,.94-3.08,0-1.16,2-2.28,3.81-3.38,5.67-.91,1.53-1.09,1.59-1.89.07a3.76,3.76,0,0,0-4.08-2.2A11.89,11.89,0,0,1,11.93,35L16,28c-1.91-.42-1.86-1.58-1.55-3a2.87,2.87,0,0,0-.72-2c-1-1.44-1.13-1.66,0-3a2.66,2.66,0,0,0,.65-2.71c-.39-1.43-.13-1.79,1.37-2.21A2.77,2.77,0,0,0,17.86,13a1.4,1.4,0,0,1,2.06-1.11,2.58,2.58,0,0,0,2.76-.53c1.37-1.14,1.77-1.1,3.15.05a2.64,2.64,0,0,0,2.8.45A1.38,1.38,0,0,1,30.7,12.9,2.66,2.66,0,0,0,32.87,15a1.48,1.48,0,0,1,1.3,2.16,2.7,2.7,0,0,0,.75,2.92,1.74,1.74,0,0,1,0,2.79,2.21,2.21,0,0,0-.69,2.56c.45,1.29,0,2.15-1.63,2.44ZM24.33,29.72a8.33,8.33,0,1,0-.06-16.66,8.52,8.52,0,0,0-8.48,8.37A8.45,8.45,0,0,0,24.33,29.72Z"/><path class="cls-1" d="M24.33,29.72a8.45,8.45,0,0,1-8.54-8.29,8.5,8.5,0,0,1,17-.05A8.41,8.41,0,0,1,24.33,29.72Zm-.12-15.17a6.9,6.9,0,0,0-7,6.75,7,7,0,0,0,7.18,6.91,6.67,6.67,0,0,0,6.89-6.79A6.83,6.83,0,0,0,24.21,14.55Z"/><path d="M24.21,14.55a6.83,6.83,0,0,1,7,6.87,6.67,6.67,0,0,1-6.89,6.79,7,7,0,0,1-7.18-6.91A6.9,6.9,0,0,1,24.21,14.55Zm-3,11.05.56.12a.39.39,0,0,0,.24,0,3.75,3.75,0,0,1,4.52-.11c.84.52,1-.2.79-.86a3,3,0,0,1,1.09-3.51A2.8,2.8,0,0,0,29,20.4,2.92,2.92,0,0,0,28,20,3.13,3.13,0,0,1,25,17.68c-.09-.27-.37-.48-.64-.82a9.38,9.38,0,0,1-1.78,2.49c-.77.55-1.9.61-3.42,1C21.52,21.72,22,23.5,21.23,25.6Z"/></svg>