<svg id="Layer_1" data-name="Layer 1" xmlns="http://www.w3.org/2000/svg" viewBox="0 0 50 50"><defs><style>.cls-1{fill:#fff;}</style></defs><path d="M8.83,10.36v1.48c0,6.1,0,12.19,0,18.29a9.36,9.36,0,0,0,1.4,5.12A25.21,25.21,0,0,0,23.85,46.17a3.65,3.65,0,0,0,2.24,0,24.65,24.65,0,0,0,13.71-11,9.5,9.5,0,0,0,1.31-4.42c.14-6.55.07-13.11.06-19.67a5.1,5.1,0,0,0-.09-.71A42.17,42.17,0,0,1,25.52,4.11a1.26,1.26,0,0,0-1.1,0A42.25,42.25,0,0,1,8.83,10.36ZM44,20.48c0,3.09-.06,6.19,0,9.28a12.56,12.56,0,0,1-2.08,7.33,27.6,27.6,0,0,1-16,12,3.59,3.59,0,0,1-1.87,0A27.51,27.51,0,0,1,7.71,36.43,11.79,11.79,0,0,1,6,30.1c.05-6.65,0-13.3,0-20,0-1.93.13-2.12,2-2.47A38.52,38.52,0,0,0,24.12,1,2,2,0,0,1,26,1,37.82,37.82,0,0,0,42.16,7.71,1.9,1.9,0,0,1,44,10C43.93,13.46,44,17,44,20.48Z"/><path class="cls-1" d="M8.83,10.36a44.6,44.6,0,0,0,16.3-6.67s11,6,16,6.67c0,0,1.74,20.61-.7,24.08-2.57,3.64-5.26,9.22-14.49,11.73a5.42,5.42,0,0,1-2,.17c-3-.62-14.79-6.42-15.09-16.21Z"/><path d="M24.87,35.66H13.6c-.88,0-1-.15-.91-1,.12-1.06.24-2.12.38-3.18a2.35,2.35,0,0,1,.14-.52,1,1,0,0,1,.72-.7c2.24-.6,4.47-1.26,6.72-1.81.61-.15,1.18-.35,1.29-1.05a3.32,3.32,0,0,0-.57-2.61,7,7,0,0,1-1.3-2.54.54.54,0,0,0-.24-.35,2.44,2.44,0,0,1-1-1.76,7.5,7.5,0,0,1-.1-1.64,1.25,1.25,0,0,1,.62-1.09c.28-.14.29-.3.24-.55a9.1,9.1,0,0,1-.05-3.08,4.25,4.25,0,0,1,3.73-3.5,13,13,0,0,1,4,.07,4.31,4.31,0,0,1,3.43,4,10.81,10.81,0,0,1-.14,2.54.35.35,0,0,0,.21.46,1.14,1.14,0,0,1,.65,1,6.17,6.17,0,0,1-.24,2.34,2.05,2.05,0,0,1-.81,1.09.9.9,0,0,0-.37.52,7,7,0,0,1-1.28,2.43,3.29,3.29,0,0,0-.6,2.45,1.26,1.26,0,0,0,1.05,1.16l4,1.07c.9.25,1.8.52,2.71.73a1.24,1.24,0,0,1,1,1.09c.22,1.19.31,2.4.45,3.61,0,.42-.4.8-.91.8H24.87Z"/></svg>