<svg id="Layer_1" data-name="Layer 1" xmlns="http://www.w3.org/2000/svg" viewBox="0 0 50 50"><defs><style>.cls-1{fill:#fff;}.cls-2{fill:#0f0f0f;}.cls-3{fill:none;stroke:#393a3a;stroke-miterlimit:10;stroke-width:0.5px;}</style></defs><path d="M8.83,10.36v1.48c0,6.1,0,12.19,0,18.29a9.36,9.36,0,0,0,1.4,5.12A25.21,25.21,0,0,0,23.85,46.17a3.65,3.65,0,0,0,2.24,0,24.65,24.65,0,0,0,13.71-11,9.5,9.5,0,0,0,1.31-4.42c.14-6.55.07-13.11.06-19.67a5.1,5.1,0,0,0-.09-.71A42.17,42.17,0,0,1,25.52,4.11a1.26,1.26,0,0,0-1.1,0A42.25,42.25,0,0,1,8.83,10.36ZM44,20.48c0,3.09-.06,6.19,0,9.28a12.56,12.56,0,0,1-2.08,7.33,27.6,27.6,0,0,1-16,12,3.59,3.59,0,0,1-1.87,0A27.51,27.51,0,0,1,7.71,36.43,11.79,11.79,0,0,1,6,30.1c.05-6.65,0-13.3,0-20,0-1.93.13-2.12,2-2.47A38.52,38.52,0,0,0,24.12,1,2,2,0,0,1,26,1,37.82,37.82,0,0,0,42.16,7.71,1.9,1.9,0,0,1,44,10C43.93,13.46,44,17,44,20.48Z"/><path class="cls-1" d="M8.83,10.36a44.6,44.6,0,0,0,16.3-6.67s11,6,16,6.67c0,0,1.74,20.61-.7,24.08-2.57,3.64-5.26,9.22-14.49,11.73a5.42,5.42,0,0,1-2,.17c-3-.62-14.79-6.42-15.09-16.21Z"/><path class="cls-2" d="M25.63,22.82c-.91,0-1.82,0-2.72,0-.43,0-.62-.07-.6-.55.05-.71,0-1.42,0-2.13a1.64,1.64,0,0,1,1-1.6,1.47,1.47,0,0,1,1.89.13c.36.37.65.27,1,0A1.77,1.77,0,0,1,29,20c.06.8,0,1.62,0,2.42,0,.41-.22.42-.51.42Z"/><path class="cls-2" d="M34.32,33c-.93,0-1.86,0-2.79,0-.37,0-.53-.09-.51-.49,0-.78,0-1.56,0-2.35A1.54,1.54,0,0,1,32,28.74c.61-.29,1.24-.5,1.82.08a.74.74,0,0,0,1.11,0,1.77,1.77,0,0,1,2.76,1.32c.06.81,0,1.62,0,2.43,0,.39-.19.43-.5.42C36.23,33,35.28,33,34.32,33Z"/><path class="cls-2" d="M17.13,33.35c-.9,0-1.81,0-2.72,0-.42,0-.62-.06-.59-.55,0-.71,0-1.42,0-2.13a1.68,1.68,0,0,1,1-1.65,1.46,1.46,0,0,1,1.88.17c.34.36.67.3,1,0a1.4,1.4,0,0,1,1.75-.12,1.59,1.59,0,0,1,1,1.49c0,.78,0,1.56,0,2.34,0,.42-.15.49-.51.48C19,33.34,18.09,33.35,17.13,33.35Z"/><path class="cls-2" d="M19,26.57a1.85,1.85,0,0,1-1.84,1.89,1.87,1.87,0,0,1-1.81-1.84A1.83,1.83,0,0,1,19,26.57Z"/><path class="cls-2" d="M27.47,16.09a1.79,1.79,0,0,1-1.87,1.83,1.76,1.76,0,0,1-1.77-1.76,1.82,1.82,0,1,1,3.64-.07Z"/><path class="cls-2" d="M36.17,26.27a1.81,1.81,0,0,1-1.8,1.84,1.82,1.82,0,1,1,1.8-1.84Z"/><path class="cls-3" d="M23.32,15.54c-7,1-7,7.93-7,7.93"/><path class="cls-3" d="M28.18,15.46c7,1,7,7.93,7,7.93"/><polyline class="cls-2" points="25.3 29.53 25.3 27.36 24.66 27.36 25.82 25.44 26.68 27.36 26.13 27.36 26.14 29.57 28.22 29.57"/><polyline class="cls-2" points="23.16 29.44 23.16 28.8 21.24 29.96 23.16 30.82 23.16 30.27 25.37 30.28 25.98 30.28 28.2 30.27 28.2 30.82 30.11 29.96 28.2 28.8 28.2 29.44"/></svg>