<svg id="Layer_1" data-name="Layer 1" xmlns="http://www.w3.org/2000/svg" viewBox="0 0 50 50"><defs><style>.cls-1{fill:#fff;}.cls-2{fill:#020202;}.cls-3{fill:#f6f8fa;}</style></defs><path d="M8.83,10.36v1.48c0,6.1,0,12.19,0,18.29a9.36,9.36,0,0,0,1.4,5.12A25.21,25.21,0,0,0,23.85,46.17a3.65,3.65,0,0,0,2.24,0,24.65,24.65,0,0,0,13.71-11,9.5,9.5,0,0,0,1.31-4.42c.14-6.55.07-13.11.06-19.67a5.1,5.1,0,0,0-.09-.71A42.17,42.17,0,0,1,25.52,4.11a1.26,1.26,0,0,0-1.1,0A42.25,42.25,0,0,1,8.83,10.36ZM44,20.48c0,3.09-.06,6.19,0,9.28a12.56,12.56,0,0,1-2.08,7.33,27.6,27.6,0,0,1-16,12,3.59,3.59,0,0,1-1.87,0A27.51,27.51,0,0,1,7.71,36.43,11.79,11.79,0,0,1,6,30.1c.05-6.65,0-13.3,0-20,0-1.93.13-2.12,2-2.47A38.52,38.52,0,0,0,24.12,1,2,2,0,0,1,26,1,37.82,37.82,0,0,0,42.16,7.71,1.9,1.9,0,0,1,44,10C43.93,13.46,44,17,44,20.48Z"/><path class="cls-1" d="M8.83,10.36a44.6,44.6,0,0,0,16.3-6.67s11,6,16,6.67c0,0,1.74,20.61-.7,24.08-2.57,3.64-5.26,9.22-14.49,11.73a5.42,5.42,0,0,1-2,.17c-3-.62-14.79-6.42-15.09-16.21Z"/><path class="cls-2" d="M24.89,8.79a7,7,0,0,0,.91.62c.34.24.39.41.19.75s-.19.6.09.78.51.08.74-.24a.47.47,0,0,1,.74-.14l1.29.83a.46.46,0,0,1,.18.7c0,.07-.08.12-.11.19a.5.5,0,0,0,.21.64.45.45,0,0,0,.62-.13c.05,0,.08-.12.13-.18a.43.43,0,0,1,.64-.13l1.39.9a.43.43,0,0,1,.15.66c0,.07-.08.13-.11.2a.5.5,0,0,0,.85.51c.38-.49.45-.5,1-.15l.56.37c.37.24.41.44.16.82s-.52.8-.8,1.19a.37.37,0,0,0,0,.51,8.73,8.73,0,0,1,.5.74c.26.4.22.58-.16.85l-.11.07a.42.42,0,0,0-.09.57.4.4,0,0,0,.55.18,1.91,1.91,0,0,0,.28-.15.4.4,0,0,1,.61.12c.33.48.65,1,1,1.46a.43.43,0,0,1-.15.68,2,2,0,0,0-.23.18.42.42,0,0,0-.06.53.43.43,0,0,0,.5.19l.12,0c.64-.3.65-.3,1,.31l.67,1c.29.44.27.57-.16.88s-.34.55,0,.77a.45.45,0,0,0,.53,0c.47-.28.6-.25.9.21l.39.59c.33.51.31.64-.19,1l-5.81,3.84-10.62,7-3.3,2.19a.46.46,0,0,1-.73-.14c-.19-.26-.36-.53-.53-.79s-.22-.55.15-.83A.52.52,0,0,0,19,38.4a.43.43,0,0,0-.3-.35.47.47,0,0,0-.47.09c-.4.25-.56.22-.82-.17s-.58-.87-.86-1.31-.16-.5.14-.73c.13-.1.29-.19.33-.38a.46.46,0,0,0-.2-.44.45.45,0,0,0-.51,0c-.54.3-.6.28-.94-.23s-.5-.74-.74-1.12-.28-.54.14-.86.36-.59.07-.79a.47.47,0,0,0-.54,0c-.48.28-.57.25-.88-.2s-.42-.61-.64-.91,0-.3.08-.43.61-.39.88-.63c-.33-.19-.52-.17-.7.13-.32.5-.57.37-.95.12-.2-.14-.42-.26-.62-.39-.36-.25-.4-.43-.16-.8l2.32-3.56,4.27-6.58,3.53-5.43,3-4.58s0,0,0-.08Zm-2,15.1A5,5,0,0,0,25,22.15a10.34,10.34,0,0,1,.57-.89c.51-.81,1-1.62,1.54-2.43a.42.42,0,0,1,.62-.18.45.45,0,0,1,.08.63l-.53.83-.9,1.42a.92.92,0,0,0,.36-.16L31.85,18a1.87,1.87,0,0,0,.57-.55c.35-.55.72-1.1,1.08-1.65.06-.1.21-.19.08-.33s-.25-.06-.39,0a1.33,1.33,0,0,1-1.5.08,1.27,1.27,0,0,1-.59-1.38.4.4,0,0,0-.23-.51,1.58,1.58,0,0,1-.24-.15.31.31,0,0,0-.48,0,1.31,1.31,0,0,1-1.5,0,1.22,1.22,0,0,1-.57-1.31.44.44,0,0,0-.28-.59.62.62,0,0,1-.17-.11c-.17-.15-.31-.15-.52,0a1.32,1.32,0,0,1-1.93-.44,1.26,1.26,0,0,1-.13-.95c.05-.16.06-.29-.12-.37s-.22.11-.29.2a4,4,0,0,0-.28.43L20.11,17,14,26.47c-.55.86-1.11,1.71-1.67,2.57-.06.09-.17.17,0,.29a.24.24,0,0,0,.34,0,1.3,1.3,0,0,1,1.72,0,.25.25,0,0,0,.36,0c.61-.41,1.22-.82,1.83-1.21a2.47,2.47,0,0,0,.83-.81c1.36-2.16,2.74-4.31,4.12-6.46l2.41-3.79c.2-.31.41-.39.63-.26s.26.4.08.7-.22.33-.33.5l-5,7.81a3,3,0,0,0-.41.74,7.77,7.77,0,0,0,2.77-2.41c1.2-2,2.54-4,3.82-6,.2-.31.43-.39.66-.24s.23.38,0,.67c-.74,1.16-1.49,2.31-2.22,3.47a20.47,20.47,0,0,0-1.12,1.78l0,0C22.82,24,22.84,23.91,22.86,23.89Zm13.41-.13a1.25,1.25,0,0,1-1.18-.63,1.09,1.09,0,0,1,0-1.29c.26-.32.14-.52,0-.76-.05-.07-.11-.14-.15-.21s-.19-.2-.38-.15a1.27,1.27,0,0,1-1.42-.52,1.3,1.3,0,0,1,.08-1.5.3.3,0,0,0,0-.44c-.15-.18-.25,0-.35.06l-9.23,6.11L18.3,28c-1.42.95-2.85,1.9-4.29,2.83-.23.16-.19.28,0,.45s.22,0,.33,0a1.24,1.24,0,0,1,1.31.45A1.05,1.05,0,0,1,15.73,33c-.33.43-.15.69.07,1s.24.24.47.19a1.19,1.19,0,0,1,1.33.47,1.12,1.12,0,0,1,.08,1.37.57.57,0,0,0,0,.84l.12.19c.08.15.19.18.37.13a1.26,1.26,0,0,1,1.3,2.06c-.12.15-.06.24,0,.35s.2.06.3,0l2.82-1.86,7.51-5,8.6-5.69c.09-.05.23-.09.15-.26a.27.27,0,0,0-.36-.16,1.27,1.27,0,0,1-1.45-.52,1.32,1.32,0,0,1,.11-1.55c0-.05.11-.13.1-.15-.16-.26-.32-.53-.5-.77s-.23.05-.35,0A.48.48,0,0,0,36.27,23.76Z"/><path class="cls-3" d="M22.86,23.89s0,.06-.07,0l0,0Z"/><path d="M26.27,34.48l-.41,0c-.26,0-.48,0-.58.3a.54.54,0,0,1-.64.35.6.6,0,0,1-.58-.51c0-.24-.13-.29-.35-.29s-.48,0-.73,0-.48-.24-.54-.53a.51.51,0,0,1,.34-.61l.86-.41c.11,0,.22-.08.17-.25a4.68,4.68,0,0,1-.09-1.71c0-.44,0-.5-.47-.38L20.91,31c-.36.1-.72.19-1.07.3a.46.46,0,0,1-.59-.64c.09-.23.18-.46.26-.69a.88.88,0,0,1,.46-.54c1.22-.68,2.45-1.38,3.68-2.05a.59.59,0,0,0,.35-.57,4.68,4.68,0,0,1,.67-2.27.8.8,0,0,1,.74-.48.81.81,0,0,1,.67.61,4.54,4.54,0,0,1,.35,2.18.78.78,0,0,0,.36.82c1.11.8,2.18,1.63,3.28,2.45a1,1,0,0,1,.37.58c0,.22.09.46.15.68a.5.5,0,0,1-.11.58c-.19.17-.4.1-.6,0L27,30.74a5.42,5.42,0,0,0-.56-.22c-.18-.06-.29,0-.3.21a5,5,0,0,1-.33,1.84c-.06.14,0,.22.14.28l.64.41c.41.26.51.46.42.77S26.72,34.49,26.27,34.48Zm-.79-1-.24-.16c-.38-.26-.41-.34-.27-.79a5,5,0,0,0,.34-1.19l.09-1.28c0-.28.16-.48.46-.46a3.14,3.14,0,0,1,1.24.23l2.19,1c.05,0,.13.12.19,0s-.06-.11-.11-.16c-1-.83-2.05-1.62-3.11-2.36a1.34,1.34,0,0,1-.65-1.49A3.78,3.78,0,0,0,25.34,25l-.19.4a5.06,5.06,0,0,0-.37,1.93.61.61,0,0,1-.36.55c-1,.54-2,1.09-3,1.65l-1.17.65,0,.09L22,29.85A5.14,5.14,0,0,1,24,29.5c.49.06.58.14.56.64a6.35,6.35,0,0,0,.09,2.38.5.5,0,0,1-.34.73,2.07,2.07,0,0,0-.36.23A2.59,2.59,0,0,0,25.48,33.51Z"/><path d="M34.66,28.5a.39.39,0,0,1-.27.39.4.4,0,0,1-.5-.18c-.19-.29-.37-.59-.56-.89L29.66,22c-.16-.27-.13-.51.08-.65s.47-.05.64.22l4.17,6.68A.52.52,0,0,1,34.66,28.5Z"/><path class="cls-2" d="M23.26,14.1a.52.52,0,0,1,.3.12l5.78,3.63.16.11a.4.4,0,0,1,.16.57.4.4,0,0,1-.61.12c-.64-.39-1.28-.8-1.91-1.2l-1.8-1.14L23.08,14.9a.42.42,0,0,1-.22-.51A.4.4,0,0,1,23.26,14.1Z"/></svg>