<svg id="Layer_1" data-name="Layer 1" xmlns="http://www.w3.org/2000/svg" viewBox="0 0 50 50"><defs><style>.cls-1{fill:#fff;}</style></defs><path d="M8.83,10.36v1.48c0,6.1,0,12.19,0,18.29a9.36,9.36,0,0,0,1.4,5.12A25.21,25.21,0,0,0,23.85,46.17a3.65,3.65,0,0,0,2.24,0,24.65,24.65,0,0,0,13.71-11,9.5,9.5,0,0,0,1.31-4.42c.14-6.55.07-13.11.06-19.67a5.1,5.1,0,0,0-.09-.71A42.17,42.17,0,0,1,25.52,4.11a1.26,1.26,0,0,0-1.1,0A42.25,42.25,0,0,1,8.83,10.36ZM44,20.48c0,3.09-.06,6.19,0,9.28a12.56,12.56,0,0,1-2.08,7.33,27.6,27.6,0,0,1-16,12,3.59,3.59,0,0,1-1.87,0A27.51,27.51,0,0,1,7.71,36.43,11.79,11.79,0,0,1,6,30.1c.05-6.65,0-13.3,0-20,0-1.93.13-2.12,2-2.47A38.52,38.52,0,0,0,24.12,1,2,2,0,0,1,26,1,37.82,37.82,0,0,0,42.16,7.71,1.9,1.9,0,0,1,44,10C43.93,13.46,44,17,44,20.48Z"/><path class="cls-1" d="M8.83,10.36a44.6,44.6,0,0,0,16.3-6.67s11,6,16,6.67c0,0,1.74,20.61-.7,24.08-2.57,3.64-5.26,9.22-14.49,11.73a5.42,5.42,0,0,1-2,.17c-3-.62-14.79-6.42-15.09-16.21Z"/><path d="M20.87,29.44h1.56c-.06-.47-.07-.87-.16-1.25-.89-3.8-.88-3.77,2.85-5.46a4.42,4.42,0,0,0,1.48-1.47c1-1.4,1.78-3,3.67-3.57.35-.11.52-.86.76-1.3-.35-.21-.44-.28-.55-.33l-2.06-1a7,7,0,0,1,2.26-.77,7.38,7.38,0,0,1,7.07,7.28c0,1.82-.76,2.61-2.55,2.85-.93.13-1.84.39-2.77.59.36,1.56,1.3,1.3,2.29,1.17a4.17,4.17,0,0,1,4.79,3.61A4.24,4.24,0,0,1,36,34.55a4.16,4.16,0,0,1-4.94-3.61,11.25,11.25,0,0,1,.36-2.45c.06-.62,0-1.25,0-1.88l-.9-.14a15.05,15.05,0,0,0-1.15,3.21c-.16,1.27-.69,1.66-1.86,1.61s-2.3,0-3.44,0c-1.95,0-3.73-.22-5.1,1.92-1.12,1.76-3.92,1.86-5.79.85a5.11,5.11,0,0,1,1.68-9.59,5.05,5.05,0,0,1,5.4,3.07A16.66,16.66,0,0,1,20.87,29.44Zm-2,.1c-.21-2.16-1.27-3.26-3-3.34a3.33,3.33,0,0,0-1.33,6.46c1.4.38,2.77.33,3.72-1.32-.81,0-1.55.15-2-.14A11.74,11.74,0,0,1,13.94,29c-.1-.12.33-.8.64-1.09.1-.1.81.14.86.33C16,30.24,17.51,29.29,18.84,29.54ZM33,29.49a2,2,0,0,0,.87,2.83,3.45,3.45,0,0,0,2.92-.13,3.16,3.16,0,0,0,.77-2.67A2,2,0,0,0,34.94,28c-.29,1.2,2.27,1.8.63,3C35.26,31.23,34,30.07,33,29.49Z"/><path d="M22.51,21.92l-2.06,2c-2.15-.43-4-.88-5.84-1.15a4.41,4.41,0,0,1-4-3.32c-.22-1.12,0-1.83,1.41-1.87a8.21,8.21,0,0,1,5.28,1.31C18.89,20,20.68,20.86,22.51,21.92Z"/><path d="M20.07,18.65c2.24-2.93,5.22-3.54,7.82-1.77A9.74,9.74,0,0,0,26.24,19c-.85,1.95-2.12,1.94-3.7,1.05Z"/></svg>